<?xml version="1.0" encoding="utf-8"?>
<!-- Generator: Adobe Illustrator 25.0.0, SVG Export Plug-In . SVG Version: 6.00 Build 0)  -->
<svg version="1.1" id="Capa_2_1_" xmlns="http://www.w3.org/2000/svg" xmlns:xlink="http://www.w3.org/1999/xlink" x="0px" y="0px"
	 viewBox="0 0 999.7 464.8" style="enable-background:new 0 0 999.7 464.8;" xml:space="preserve">
<style type="text/css">
	.st0{fill:#B3B4B2;}
	.st1{fill:#FFFFFF;}
	.st2{fill:#93254D;}
</style>
<path class="st0" d="M651.3,241.4c2.8,0,5.1,5.3,5.1,11.9v0c0,6.6-2.3,11.9-5.1,11.9"/>
<path class="st0" d="M570,253.2L570,253.2"/>
<path class="st1" d="M929.4,189.6c15.7-2.4,29.5-12,37.7-26.6c10-17.7,9.7-39.5-0.8-56.8c-11.4-18.8-26.2-35.2-43.9-48.5
	C902.7,43,880.1,32.5,855,26.4c-8-6-18.3-9.3-30.6-10c-7.5-0.4-15.9-0.4-28.5-0.4H576c-17.7,0-32.1,14.4-32.1,32.1v5.6
	c0,17.7,14.4,32.1,32.1,32.1h74.6c-10.4,11.8-19.4,25.1-27.1,39.7c-14.5,27.7-22.9,58.8-25,92.8H586c-6.9,0-13.2,2-18.6,5.4
	c-11.8-19.3-31.9-32.6-55-34.1c15.7-2.4,29.4-12,37.7-26.6c10-17.7,9.7-39.5-0.8-56.8c-11.4-18.8-26.1-35.2-43.9-48.5
	c-12.6-9.5-26.7-17.3-41.9-23.3c-6.8-8.9-18.6-17-38.9-18c-7.5-0.4-15.9-0.4-28.5-0.4H176.1c-17.7,0-32.1,14.4-32.1,32.1v5.6
	c0,17.7,14.4,32.1,32.1,32.1h57.5c-10.4,11.8-19.4,25.1-27.1,39.7c-13.9,26.6-22.2,56.4-24.8,88.8H52.2c-19.2,0-34.9,15.7-34.9,34.9
	c0,19.2,15.7,34.9,34.9,34.9h133c4.1,22.4,11.3,43.3,21.3,62.4c1.7,3.1,3.4,6.2,5.2,9.3h-55.8c-19.2,0-34.9,15.7-34.9,34.9
	c0,19.2,15.7,34.9,34.9,34.9h126.5c30.2,17.2,64.5,25.9,102.3,25.9c33.2,0,63.6-7,90.4-20.9c26.4-13.7,48.6-32,65.9-54.3
	c19.8-25.6,32.1-56.8,36-89.4c2.9,0.8,5.9,1.2,9,1.2h16.9c4.2,20.9,11.1,40.5,20.6,58.5c1.7,3.1,3.4,6.2,5.2,9.3H612
	c-19.2,0-34.9,15.7-34.9,34.9c0,19.2,15.7,34.9,34.9,34.9h87.4c30.2,17.2,64.5,25.9,102.3,25.9c33.2,0,63.6-7,90.4-20.9
	c26.4-13.7,48.6-32,65.9-54.3c24.1-31.2,37.4-70.6,37.4-110.9v-2.1C995.4,224.3,966.2,192.2,929.4,189.6z"/>
<g>
	<path class="st0" d="M886.5,167.2c-9,0-17.4-4.5-23.2-11.8c-5.5-7-12.1-12.6-20-17c-12-6.6-26-10-42.2-10
		c-27.9,0-50.3,9.8-67.2,29.4c-16.8,19.6-25.2,45.7-25.2,78.4c0,34.8,8.8,62.1,26.5,81.6c17.7,19.6,42,29.4,73,29.4
		c21.2,0,39.1-5.7,53.8-17.2c11.4-9,20.5-21,27.1-36.1c2.7-6.3-1.4-13.5-7.9-13.5h-64.9c-17.6,0-31.8-15.2-31.8-33.9v0
		c0-18.7,14.2-33.9,31.8-33.9h108.4c26.3,0,47.7,22.8,47.7,50.8v2.1c0,35.3-11.5,69.5-32.6,96.8l0,0c-15.3,19.8-34.8,35.7-58.3,48
		c-23.6,12.2-50.2,18.3-79.8,18.3c-35,0-66.2-8.2-93.7-24.5c-27.4-16.3-48.8-39.1-64.1-68.2c-15.3-29.1-23-62.3-23-99.7
		c0-37.4,7.7-70.7,23-99.9c15.3-29.3,36.6-52.1,63.9-68.4c27.3-16.3,58.4-24.5,93.4-24.5c42.4,0,78.2,11,107.3,32.9
		c15.5,11.6,28.1,25.6,38,42c12.8,21.1-1.6,49-25.2,49H886.5z"/>
</g>
<path class="st2" d="M469.6,167.2c-9,0-17.4-4.5-23.2-11.8c-5.5-7-12.1-12.6-20-17c-12-6.6-26-10-42.2-10
	c-27.9,0-50.3,9.8-67.2,29.4c-16.8,19.6-25.2,45.7-25.2,78.4c0,34.8,8.8,62.1,26.5,81.6c17.7,19.6,42,29.4,73,29.4
	c21.2,0,39.1-5.7,53.8-17.2c11.4-9,20.5-21,27.1-36.1c2.7-6.3-1.4-13.5-7.9-13.5h-64.9c-17.6,0-31.8-15.2-31.8-33.9v0
	c0-18.7,14.2-33.9,31.8-33.9h108.4c26.3,0,47.7,22.8,47.7,50.8v2.1c0,35.3-11.5,69.5-32.6,96.8v0c-15.3,19.8-34.8,35.7-58.3,48
	c-23.6,12.2-50.2,18.3-79.8,18.3c-35,0-66.2-8.2-93.7-24.5c-27.4-16.3-48.8-39.1-64.1-68.2c-15.3-29.1-23-62.3-23-99.7
	c0-37.4,7.7-70.7,23-99.9c15.3-29.3,36.6-52.1,63.9-68.4c27.3-16.3,58.4-24.5,93.4-24.5c42.4,0,78.2,11,107.3,32.9
	c15.5,11.6,28.1,25.6,38,42c12.8,21.1-1.6,49-25.2,49H469.6z"/>
<path class="st2" d="M335.1,402.7H155.9c-6.6,0-11.9-5.3-11.9-11.9v0c0-6.6,5.3-11.9,11.9-11.9h179.1c6.6,0,11.9,5.3,11.9,11.9v0
	C346.9,397.4,341.6,402.7,335.1,402.7z"/>
<path class="st2" d="M231.3,261.2H52.2c-6.6,0-11.9-5.3-11.9-11.9v0c0-6.6,5.3-11.9,11.9-11.9h179.1c6.6,0,11.9,5.3,11.9,11.9v0
	C243.2,255.9,237.9,261.2,231.3,261.2z"/>
<path class="st2" d="M395.3,62.9c8.8,0,15.7,0,21.9,0.4c10.4,0.6,14.7,4.4,15,14.8c0.2,5,4.1,9,9.1,9h0c4.8,0,8.8-3.7,9.1-8.4
	c0.2-3.5,0.2-7,0.2-10.4c0-15.7-5.4-27.6-27.2-28.8c-6.9-0.4-15-0.4-27.2-0.4H176.1c-5,0-9.1,4.1-9.1,9.1v5.6c0,5,4.1,9.1,9.1,9.1
	H395.3z"/>
<path class="st0" d="M791.1,402.7H612c-6.6,0-11.9-5.3-11.9-11.9v0c0-6.6,5.3-11.9,11.9-11.9h179.1c6.6,0,11.9,5.3,11.9,11.9v0
	C803,397.4,797.7,402.7,791.1,402.7z"/>
<path class="st0" d="M795.1,62.9c8.8,0,15.7,0,21.9,0.4c10.4,0.6,14.7,4.4,15,14.8c0.2,5,4.1,9,9.1,9h0c4.8,0,8.8-3.7,9.1-8.4
	c0.2-3.5,0.2-7,0.2-10.4c0-15.7-5.4-27.6-27.2-28.8c-6.9-0.4-15-0.4-27.2-0.4H576c-5,0-9.1,4.1-9.1,9.1v5.6c0,5,4.1,9.1,9.1,9.1
	H795.1z"/>
<path class="st0" d="M655.8,265.1H586c-6.6,0-11.9-5.3-11.9-11.9v0c0-6.6,5.3-11.9,11.9-11.9h69.8c6.6,0,11.9,5.3,11.9,11.9v0
	C667.7,259.8,662.4,265.1,655.8,265.1z"/>
</svg>
